<?xml version="1.0" standalone="no"?>
<!DOCTYPE svg PUBLIC "-//W3C//DTD SVG 20010904//EN"
 "http://www.w3.org/TR/2001/REC-SVG-20010904/DTD/svg10.dtd">
<svg version="1.0" xmlns="http://www.w3.org/2000/svg"
 width="700.000000pt" height="394.000000pt" viewBox="0 0 700.000000 394.000000"
 preserveAspectRatio="xMidYMid meet">

<g transform="translate(0.000000,394.000000) scale(0.100000,-0.100000)"
fill="#000000" stroke="none">
<path d="M0 3380 l0 -560 63 -2 c42 -1 49 -2 22 -5 -79 -7 -85 -10 -85 -48 0
-33 2 -35 34 -35 19 0 61 -8 94 -18 l59 -19 19 36 c31 58 63 90 111 111 26 11
48 18 51 15 3 -2 -8 -24 -24 -47 -16 -24 -34 -53 -41 -66 -7 -13 -22 -35 -33
-50 l-21 -26 25 -19 c31 -23 34 -61 9 -137 -13 -41 -14 -53 -4 -60 11 -6 11
-9 0 -12 -8 -3 11 -13 41 -23 46 -15 101 -18 330 -21 l275 -4 0 33 c0 30 2 32
37 31 20 -1 44 -9 53 -18 9 -9 21 -16 26 -16 5 0 14 -11 19 -25 11 -29 31 -31
158 -13 74 10 105 8 90 -7 -2 -3 -52 -10 -111 -17 -103 -11 -106 -12 -109 -37
-3 -28 -38 -44 -38 -17 0 8 -5 18 -11 21 -7 5 -9 -6 -7 -31 2 -27 7 -38 17
-36 9 2 12 -4 8 -20 -3 -13 -3 -38 1 -56 l7 -34 23 25 c14 15 27 47 34 88 6
35 13 66 15 68 1 2 10 -2 19 -9 11 -10 15 -28 13 -69 -4 -88 0 -116 19 -137
15 -16 16 -30 11 -89 -6 -67 -6 -68 -7 -17 -1 30 -6 51 -11 47 -5 -3 -9 -36
-8 -74 1 -38 5 -64 9 -58 20 31 6 -106 -17 -167 -24 -64 -23 -79 4 -53 15 14
14 -2 -13 -118 -9 -38 -16 -86 -16 -105 0 -19 -5 -53 -11 -74 -9 -34 -8 -42 6
-52 14 -11 13 -13 -14 -19 -30 -6 -40 -25 -53 -100 -3 -16 -11 -20 -45 -20
-51 -1 -80 -25 -89 -72 -4 -19 -8 -32 -10 -31 -8 8 -20 119 -14 123 4 3 10 16
12 30 5 22 3 25 -16 19 -11 -4 -58 -17 -103 -30 -45 -12 -98 -34 -117 -49 -39
-30 -71 -30 -71 0 0 15 -9 21 -35 25 l-35 6 31 6 c17 4 40 4 52 1 16 -4 26 4
44 31 13 20 30 36 38 36 8 0 26 7 40 15 l25 14 -25 9 c-24 9 -24 10 13 17 32
6 37 11 37 34 0 15 -5 32 -11 38 -7 7 -1 19 20 39 17 16 31 33 31 39 0 5 58
49 128 96 l127 86 -1 89 c-1 57 -10 119 -24 172 l-22 82 -48 0 c-27 0 -59 -4
-72 -9 -13 -4 -41 -11 -62 -15 -33 -6 -38 -5 -28 6 26 32 74 144 77 179 2 28
10 45 29 60 21 17 26 29 26 67 0 35 -3 43 -12 34 -8 -8 -17 -8 -31 0 -13 7
-60 8 -141 3 -67 -4 -160 -8 -209 -10 -78 -2 -91 -5 -127 -31 -103 -75 -103
-75 -112 -62 -4 7 -8 24 -8 37 0 19 -4 22 -23 17 -12 -3 -28 -6 -34 -6 -9 0
-13 -17 -13 -51 0 -43 -3 -50 -16 -45 -9 3 -16 6 -17 6 -1 0 -1 35 1 79 l4 78
-46 7 c-43 7 -82 38 -71 57 6 8 -92 99 -106 99 -5 0 -9 -220 -9 -514 0 -510 0
-515 20 -521 12 -4 28 -1 38 7 11 9 9 3 -5 -18 -12 -17 -29 -37 -38 -44 -19
-15 -21 -80 -2 -80 7 0 27 28 45 63 18 34 42 73 53 87 11 14 0 -16 -26 -67
-26 -51 -44 -100 -42 -110 3 -10 9 -29 12 -42 5 -16 4 -21 -4 -17 -6 4 -11 16
-11 26 0 11 -9 24 -20 30 -19 10 -19 3 -20 -665 l0 -675 2585 0 c2061 0 2585
3 2585 13 0 25 255 133 390 165 108 26 400 26 385 1 -4 -5 -19 -9 -34 -9 -34
0 -44 -9 -30 -26 10 -12 -21 -8 -80 11 -16 5 -21 4 -17 -4 14 -23 -22 -43 -64
-36 -42 7 -84 -1 -75 -15 3 -5 -11 -12 -31 -16 -23 -4 -38 -13 -41 -24 -5 -18
-57 -35 -74 -24 -5 3 -9 0 -9 -5 0 -6 9 -11 21 -11 11 0 17 -4 14 -10 -4 -7
243 -10 734 -10 l741 0 0 601 c0 561 -1 601 -17 595 -16 -6 -16 -6 0 12 38 42
4 410 -35 386 -5 -4 -4 2 2 13 10 15 8 35 -9 98 -12 44 -26 84 -30 90 -5 5
-11 24 -15 40 -5 22 -4 26 4 15 5 -8 10 -21 10 -29 0 -8 9 -24 20 -36 12 -13
28 -60 42 -125 l23 -105 3 609 c1 335 1 610 -1 612 -6 7 -227 16 -227 10 0 -4
21 -33 47 -64 66 -81 100 -161 104 -247 2 -38 8 -73 12 -76 5 -3 11 -25 14
-48 5 -39 4 -42 -24 -53 -29 -11 -30 -13 -41 -119 -12 -104 -12 -109 14 -190
14 -45 28 -89 31 -97 5 -12 3 -12 -15 -1 -15 9 -29 42 -48 112 -16 61 -35 106
-47 116 -10 9 -23 26 -28 38 -5 15 -14 21 -24 17 -8 -3 -15 -1 -15 5 0 6 11
11 25 11 14 0 25 5 25 10 0 6 -7 10 -15 10 -8 0 -15 9 -15 19 0 11 -3 27 -6
36 -5 11 2 19 23 27 28 10 31 18 51 107 31 137 30 145 -17 159 -50 15 -48 16
-55 -13 -4 -14 -12 -25 -19 -25 -20 -1 -57 -69 -64 -116 -3 -24 -10 -44 -15
-44 -9 0 -2 58 13 98 15 40 10 78 -21 161 -35 95 -60 146 -108 219 -38 56 -35
71 13 72 16 1 13 7 -20 36 -22 19 -31 32 -20 28 40 -15 121 -72 174 -122 l53
-52 124 0 124 0 0 570 0 570 -3500 0 -3500 0 0 -560z m3107 295 c-9 -8 -17
-19 -19 -25 -3 -9 -40 -19 -85 -22 -7 -1 -13 -5 -13 -9 0 -4 -6 -7 -12 -6 -37
1 -58 -4 -53 -13 4 -6 -9 -10 -32 -9 -21 1 -29 3 -18 6 11 3 27 10 35 17 29
22 60 36 80 36 11 0 20 4 20 8 0 7 50 22 103 31 5 0 2 -6 -6 -14z m2343 0 c0
-8 -4 -15 -10 -15 -5 0 -10 7 -10 15 0 8 5 15 10 15 6 0 10 -7 10 -15z m-1483
-17 c-3 -8 -6 -5 -6 6 -1 11 2 17 5 13 3 -3 4 -12 1 -19z m40 -20 c-3 -7 -5
-2 -5 12 0 14 2 19 5 13 2 -7 2 -19 0 -25z m1413 16 c0 -8 -4 -12 -10 -9 -5 3
-10 10 -10 16 0 5 5 9 10 9 6 0 10 -7 10 -16z m-1373 -16 c-3 -8 -6 -5 -6 6
-1 11 2 17 5 13 3 -3 4 -12 1 -19z m40 -20 c-3 -7 -5 -2 -5 12 0 14 2 19 5 13
2 -7 2 -19 0 -25z m34 -15 c-8 -15 -10 -15 -11 -2 0 17 10 32 18 25 2 -3 -1
-13 -7 -23z m36 -20 c-3 -10 -5 -4 -5 12 0 17 2 24 5 18 2 -7 2 -21 0 -30z
m-285 7 c67 -18 78 -33 78 -105 0 -34 -3 -65 -7 -68 -3 -4 -29 15 -57 41 -28
27 -75 61 -103 77 -59 31 -67 52 -25 61 15 3 32 7 37 9 6 2 15 2 22 0 6 -2 31
-9 55 -15z m328 -17 c0 -19 -3 -24 -10 -17 -6 6 -8 18 -4 27 9 24 14 21 14
-10z m-1337 0 c-13 -2 -33 -2 -45 0 -13 2 -3 4 22 4 25 0 35 -2 23 -4z m1414
-19 c24 -14 41 -29 38 -35 -4 -5 3 -9 14 -9 12 0 21 -4 21 -9 0 -5 3 -18 6
-28 5 -15 4 -15 -5 -3 -9 12 -11 9 -12 -15 l-1 -30 -10 35 c-6 19 -13 29 -15
22 -7 -17 -32 15 -34 43 -1 16 -2 16 -8 -5 l-7 -25 -8 23 c-8 24 -26 30 -27
10 -1 -15 -17 21 -18 40 -1 18 18 15 66 -14z m-1669 -1 c-10 -2 -26 -2 -35 0
-10 3 -2 5 17 5 19 0 27 -2 18 -5z m62 3 c0 -9 -30 -14 -35 -6 -4 6 3 10 14
10 12 0 21 -2 21 -4z m148 -8 c-16 -5 -28 -14 -28 -19 0 -5 -13 -9 -30 -9 -23
0 -28 3 -23 17 5 12 2 15 -10 10 -9 -3 -19 -2 -22 3 -4 6 23 10 67 9 61 0 68
-2 46 -11z m-233 -18 c3 -5 -1 -10 -10 -10 -9 0 -13 5 -10 10 3 6 8 10 10 10
2 0 7 -4 10 -10z m1404 -63 c-1 -23 -4 -55 -8 -72 -10 -47 -19 -9 -13 62 5 69
23 77 21 10z m-1252 37 c-3 -3 -12 -4 -19 -1 -8 3 -5 6 6 6 11 1 17 -2 13 -5z
m-37 -24 l-25 -8 25 -1 c22 -1 23 -3 7 -12 -9 -6 -15 -14 -12 -20 4 -5 1 -9
-4 -9 -6 0 -11 5 -11 12 0 9 -3 9 -12 0 -18 -18 -62 -16 -55 2 5 12 -5 16 -41
19 -35 2 -28 4 26 5 46 1 71 6 67 12 -4 6 7 10 27 9 31 -1 32 -1 8 -9z m1321
-67 c-1 -37 -4 -70 -7 -72 -12 -12 -15 15 -9 79 9 88 19 84 16 -7z m364 35
c-7 -34 -15 -34 -15 1 0 18 4 30 9 26 6 -3 8 -15 6 -27z m-1898 16 c-3 -3 -12
-4 -19 -1 -8 3 -5 6 6 6 11 1 17 -2 13 -5z m353 -24 c0 -19 -5 -30 -14 -30
-15 0 -15 11 -1 43 11 25 15 21 15 -13z m1212 -110 l-10 -55 -1 75 c0 41 3 86
7 100 11 40 15 -54 4 -120z m-1146 97 c1 -9 -2 -17 -7 -17 -5 0 -9 5 -9 10 0
6 -8 10 -17 10 -15 0 -16 2 -3 10 20 13 33 8 36 -13z m1530 -24 c9 -3 14 -19
13 -42 l-1 -36 -10 38 c-12 44 -25 48 -31 10 -3 -23 -4 -22 -6 9 0 20 2 45 6
55 7 16 8 15 11 -5 2 -13 10 -26 18 -29z m-1643 30 c-7 -2 -19 -2 -25 0 -7 3
-2 5 12 5 14 0 19 -2 13 -5z m-286 -19 c-3 -3 -12 -4 -19 -1 -8 3 -5 6 6 6 11
1 17 -2 13 -5z m143 -2 c-35 -3 -41 -6 -25 -12 19 -8 19 -9 -2 -9 -17 -1 -21
-6 -18 -26 1 -14 -2 -25 -6 -25 -5 0 -9 6 -10 13 0 10 -2 10 -6 0 -2 -7 -12
-13 -21 -14 -12 0 -13 -2 -3 -6 11 -5 11 -7 0 -14 -8 -5 -9 -9 -3 -9 6 0 9
-13 6 -30 -3 -24 -9 -30 -31 -31 -22 -1 -21 -3 9 -9 l35 -7 -40 -2 c-22 -1
-35 -5 -30 -9 6 -4 11 -19 13 -34 2 -21 -2 -28 -15 -28 -15 0 -16 -2 -3 -10
11 -7 6 -10 -20 -11 -31 -1 -32 -2 -10 -8 l25 -7 -24 -6 c-13 -4 -20 -11 -16
-17 3 -6 0 -11 -7 -11 -9 0 -9 -3 2 -10 13 -9 13 -10 0 -11 -10 0 -8 -3 5 -9
17 -7 16 -9 -10 -10 -25 -2 -26 -3 -9 -8 15 -5 20 -15 20 -42 0 -19 -6 -41
-13 -48 -7 -7 -13 -20 -13 -28 0 -8 -8 -14 -17 -15 -15 0 -15 -2 2 -9 17 -7
16 -9 -10 -10 l-30 -2 30 -8 30 -8 -35 -2 c-31 -3 -32 -3 -7 -7 24 -4 40 -23
19 -23 -5 0 -9 -7 -9 -15 0 -8 4 -15 9 -15 5 0 6 -4 3 -10 -4 -6 17 -10 54
-10 34 0 61 -3 61 -8 0 -4 -20 -6 -45 -4 -45 4 -45 4 -35 -22 7 -19 6 -26 -3
-26 -8 0 -7 -4 3 -10 13 -8 12 -10 -3 -10 -10 0 -25 -7 -33 -15 -14 -13 -13
-15 5 -15 12 0 21 -4 21 -10 0 -5 -11 -10 -24 -10 -13 0 -26 -7 -30 -15 -4
-11 2 -15 24 -15 17 0 30 -4 30 -8 0 -5 -15 -7 -32 -5 -25 3 -30 2 -18 -6 8
-6 11 -11 5 -11 -5 0 4 -12 20 -25 l30 -25 -25 -2 c-14 -1 2 -4 35 -8 l60 -7
-57 -1 c-44 -2 -58 -6 -58 -17 0 -8 8 -15 18 -15 14 0 15 2 2 10 -11 7 -12 10
-2 10 7 0 20 -7 28 -15 10 -9 24 -13 40 -9 15 4 24 2 24 -6 0 -6 5 -8 10 -5 6
3 10 1 10 -4 0 -6 15 -12 33 -13 l32 -1 -35 -6 c-32 -5 -31 -6 20 -11 l55 -7
-57 -1 c-40 -1 -58 2 -59 11 0 9 -2 9 -6 0 -2 -7 -18 -13 -34 -13 -27 0 -35
-11 -30 -42 0 -5 -8 -8 -19 -8 -11 0 -20 -7 -20 -15 0 -8 4 -15 9 -15 7 0 8
-14 2 -38 -1 -3 -21 13 -44 34 -8 8 -15 8 -23 0 -13 -12 18 -112 59 -191 12
-22 21 -49 22 -61 1 -11 5 -26 9 -33 5 -7 -1 -20 -13 -31 -16 -13 -18 -19 -9
-23 9 -3 7 -9 -7 -21 -11 -8 -16 -16 -12 -16 5 0 -1 -13 -13 -30 -12 -16 -19
-34 -15 -39 3 -5 1 -12 -4 -16 -14 -8 -2 -35 16 -35 8 0 12 -4 8 -9 -3 -5 5
-11 17 -13 23 -3 24 -7 13 -68 -1 -8 3 -29 10 -47 7 -17 11 -34 7 -37 -3 -3 0
-6 7 -6 7 0 9 -4 6 -10 -3 -5 -1 -10 4 -10 6 0 10 -3 10 -7 -1 -5 0 -10 1 -13
11 -29 6 -40 -18 -40 -14 0 -22 -3 -18 -7 4 -4 -8 -13 -26 -19 -32 -11 -35
-10 -75 32 -24 24 -52 44 -63 44 -12 0 -18 5 -15 10 3 6 1 10 -4 10 -6 0 -11
-4 -11 -10 0 -5 -6 -10 -13 -10 -17 0 -43 -47 -52 -95 -3 -21 -14 -44 -23 -51
-14 -10 -14 -15 2 -49 10 -21 27 -40 37 -42 10 -3 19 -10 19 -15 0 -5 -4 -6
-10 -3 -5 3 -10 1 -10 -4 0 -6 5 -11 11 -11 15 0 39 -26 32 -34 -4 -3 2 -6 13
-7 89 -3 177 -28 104 -29 -23 0 -30 -3 -22 -9 11 -7 10 -10 -3 -15 -9 -3 -21
-4 -26 0 -5 3 -9 0 -9 -5 0 -6 8 -11 18 -12 11 -1 9 -4 -8 -9 -14 -4 -19 -8
-12 -9 9 -1 10 -6 2 -20 -14 -27 -13 -31 9 -31 14 0 18 -5 14 -20 -5 -17 0
-20 33 -22 36 -1 37 -1 7 -5 -35 -5 -35 -3 -1 -83 30 -70 41 -90 50 -90 4 0 8
-7 8 -15 0 -8 5 -15 11 -15 5 0 7 -4 4 -10 -3 -5 2 -10 12 -10 14 0 15 -2 4
-9 -11 -7 -10 -12 8 -22 11 -8 21 -23 21 -34 0 -11 11 -32 24 -46 13 -14 27
-35 30 -47 4 -12 13 -22 21 -22 8 0 17 -9 20 -20 3 -11 15 -20 26 -20 12 0 19
-7 19 -19 0 -19 23 -30 70 -32 l25 -1 -25 -8 -25 -8 25 -1 c22 -1 23 -3 8 -12
-10 -5 -25 -9 -34 -7 -35 6 -23 -20 13 -30 36 -9 34 -10 -32 -11 -49 -1 -66
-4 -55 -11 11 -7 7 -10 -20 -11 l-35 -2 35 -7 c19 -4 31 -8 25 -9 -5 -1 -3 -6
5 -11 12 -7 8 -10 -14 -10 -24 0 -27 -2 -16 -15 7 -8 9 -15 4 -15 -5 -1 31
-17 80 -38 66 -27 90 -42 92 -57 2 -11 8 -21 13 -23 6 -2 11 -12 11 -23 0 -14
-7 -19 -29 -19 -17 0 -33 5 -36 10 -3 6 -24 10 -45 10 -21 0 -41 4 -44 9 -3 5
-26 12 -51 15 -25 4 -45 11 -45 17 0 5 -16 9 -35 9 -19 0 -35 4 -35 9 0 5 -10
12 -22 15 -18 6 -20 9 -8 14 13 6 16 22 11 62 0 6 -10 10 -22 10 -16 0 -19 4
-15 17 11 27 -13 33 -129 33 -75 0 -105 3 -95 10 12 8 12 10 -5 11 -11 0 -14
3 -7 6 7 2 17 14 23 25 10 19 8 19 -48 15 -32 -3 -76 -2 -98 3 l-40 8 40 1
c28 1 36 4 26 10 -17 11 35 22 86 18 18 -1 33 3 35 8 2 6 -41 12 -109 15 -133
6 -162 20 -40 20 47 0 92 3 101 6 39 15 8 24 -91 26 l-108 2 88 3 c60 3 87 8
87 16 -1 19 -47 67 -65 67 -9 0 -13 5 -10 10 3 6 -1 10 -9 10 -14 0 -21 17
-18 41 2 15 -61 31 -101 26 -23 -3 -49 -2 -57 3 -8 5 -11 10 -6 10 5 0 -3 11
-18 25 -15 14 -21 25 -14 26 10 0 10 2 1 6 -7 2 -13 14 -13 25 0 18 -4 17 -35
-13 -19 -19 -35 -37 -35 -41 0 -5 19 -8 43 -8 31 0 38 -3 27 -10 -13 -8 -12
-10 3 -10 9 0 17 -5 17 -10 0 -6 -10 -8 -22 -6 -13 3 -57 10 -98 16 -72 11
-140 36 -140 52 0 15 -28 8 -92 -22 -72 -34 -96 -36 -153 -11 -38 17 -39 18
-19 29 12 6 24 8 28 4 4 -3 11 0 16 8 6 9 5 17 -3 22 -17 11 7 25 55 33 21 4
38 11 38 16 0 5 21 8 48 8 46 -2 46 -2 12 -9 l-35 -7 35 -2 c27 -1 45 -11 79
-46 36 -37 51 -45 81 -45 45 0 80 16 104 47 36 49 -6 132 -99 192 -39 25 -44
26 -173 23 -132 -3 -177 2 -167 18 2 4 -6 24 -19 43 -13 19 -22 38 -18 41 3 3
-1 6 -9 6 -24 0 -18 53 6 60 11 3 20 12 20 20 0 8 3 18 8 21 5 3 9 12 11 20 1
8 8 24 14 37 12 20 10 22 -10 23 -22 1 -22 1 -2 7 14 5 20 14 19 30 -1 17 4
22 24 22 21 0 23 2 11 10 -13 8 -12 10 3 10 10 0 16 4 13 9 -3 5 0 14 8 20 8
7 17 23 20 36 6 24 7 24 41 8 19 -9 35 -22 35 -29 0 -10 13 -11 51 -7 28 3 54
2 57 -3 8 -11 260 -89 266 -83 10 10 -23 38 -74 63 -89 43 -124 68 -113 80 4
3 -5 6 -18 6 -23 1 -59 21 -59 33 0 4 28 7 63 6 69 0 119 8 127 21 3 4 18 -3
33 -16 16 -13 24 -24 20 -24 -4 0 -1 -5 7 -10 12 -8 12 -10 -5 -10 -17 0 -17
-2 -5 -10 8 -5 11 -10 5 -10 -5 0 -3 -5 5 -10 11 -7 12 -10 2 -10 -31 0 22
-33 59 -37 44 -4 50 5 17 26 l-22 13 29 16 29 15 -32 16 c-25 13 -29 18 -17
26 8 6 15 17 17 25 2 8 11 21 21 28 9 7 15 18 12 23 -4 5 -1 9 6 9 8 0 8 4 -1
15 -10 12 -10 15 0 15 10 0 10 3 0 15 -7 8 -21 15 -31 15 -11 0 -19 4 -19 9 0
5 -43 9 -95 8 -52 0 -92 -3 -89 -8 3 -5 -6 -9 -20 -9 -14 0 -26 5 -26 10 0 6
-11 10 -25 10 -29 0 -36 -29 -7 -31 9 -1 1 -5 -18 -9 -30 -6 -25 -8 29 -9 35
0 62 -3 59 -7 -8 -8 -196 -9 -204 -1 -4 4 6 8 22 8 23 1 25 3 7 6 -23 4 -33
33 -12 33 8 0 8 4 0 14 -10 11 -7 19 10 35 13 12 28 21 33 22 6 0 53 0 105 -1
71 -1 92 2 89 11 -5 16 -56 30 -64 18 -3 -5 1 -9 8 -10 11 0 11 -2 0 -6 -12
-5 -52 31 -52 48 0 8 107 16 136 10 18 -3 18 -4 -1 -12 -17 -6 -17 -8 -2 -8
21 -1 22 -8 2 -28 -8 -8 -13 -19 -10 -24 4 -5 -6 -9 -22 -9 -46 -1 -5 -18 47
-20 115 -5 139 -1 137 20 -1 14 -8 20 -24 20 -13 0 -26 6 -29 14 -3 9 -18 14
-35 14 -16 -1 -32 2 -36 5 -3 4 1 7 11 7 9 0 14 5 11 10 -4 6 7 10 27 10 27 1
30 2 15 11 -9 5 -21 8 -26 5 -5 -3 -8 2 -7 12 1 14 -9 18 -46 20 -51 3 -67 22
-20 23 24 0 25 1 7 9 -16 7 -10 9 25 11 l45 2 -45 7 c-25 4 -36 8 -25 10 31 4
99 -1 105 -9 3 -3 21 -7 40 -8 19 -2 30 0 24 3 -7 3 -10 14 -7 25 3 10 0 26
-6 33 -10 12 -9 20 5 41 12 18 14 29 6 37 -16 16 -3 38 23 38 32 0 44 36 18
55 -16 13 -14 14 26 15 24 0 42 -3 38 -6 -3 -3 3 -16 14 -27 19 -21 19 -21
-15 -35 -20 -8 -41 -27 -52 -48 -10 -19 -24 -34 -31 -34 -7 0 -10 -7 -7 -15 4
-8 12 -15 20 -15 17 0 17 -5 4 -31 -8 -14 -7 -19 2 -20 7 0 4 -4 -7 -9 -15 -6
-8 -9 28 -9 30 -1 54 5 63 14 26 26 44 95 40 151 -3 30 -1 54 5 54 14 0 11 15
-8 37 -20 22 -125 43 -212 43 -29 0 -51 5 -51 11 0 5 5 7 10 4 6 -3 20 -3 31
0 15 5 18 10 10 15 -18 10 62 30 133 33 40 1 61 -2 63 -10 3 -8 21 -13 46 -12
33 0 38 2 22 9 -22 9 -13 13 22 10 17 -1 21 3 17 14 -4 10 -22 16 -52 18 -31
2 -46 7 -45 16 5 20 -120 16 -162 -7 -19 -10 -32 -21 -28 -25 3 -3 -8 -6 -25
-6 -36 0 -39 5 -15 28 16 16 12 17 -63 25 -43 4 -89 6 -101 4 -13 -3 -23 0
-23 4 0 5 -15 9 -32 10 l-33 1 39 9 c51 12 85 49 78 84 -2 15 0 36 6 48 16 35
24 60 29 97 3 19 19 64 37 100 30 61 39 70 136 135 57 39 105 76 108 83 2 7
-20 23 -55 39 -49 23 -71 27 -150 28 -51 0 -93 3 -93 6 0 12 36 37 90 64 30
15 57 31 60 36 3 4 37 4 75 -1 105 -14 129 -12 80 5 -53 19 -188 19 -254 -1
-91 -27 -236 -116 -277 -170 -30 -39 -82 -169 -93 -228 -6 -41 -7 -41 -54 -44
-41 -3 -47 -1 -47 17 0 34 69 230 97 274 23 37 23 40 4 23 -46 -42 -131 -236
-131 -302 0 -13 -4 -24 -10 -24 -13 0 -13 4 5 70 19 70 19 73 -4 60 -30 -15
-119 -155 -135 -211 -12 -38 -14 -77 -9 -159 l6 -108 -29 -5 c-16 -3 -58 -3
-94 2 l-65 7 40 19 c22 10 44 19 50 19 5 1 15 33 21 73 7 39 22 93 33 119 25
56 25 54 4 54 -19 1 -53 22 -53 34 0 10 -98 152 -113 165 -22 18 -96 41 -151
47 -28 3 -67 9 -86 13 -34 8 -34 8 25 17 106 16 350 11 453 -10 93 -19 94 -19
120 1 15 11 42 40 59 64 92 125 157 181 250 218 55 21 315 54 352 44 15 -4 26
-1 32 8 5 9 9 10 9 2 0 -6 17 -17 38 -23 57 -17 114 -42 143 -62 23 -16 28
-16 39 -3 7 8 10 22 6 30 -3 8 -1 15 4 15 6 0 10 -6 10 -14 0 -8 3 -22 7 -32
5 -13 3 -15 -8 -9 -12 7 -12 6 1 -11 28 -38 54 -64 62 -64 5 0 6 5 3 10 -4 6
9 11 32 11 l38 2 -40 7 -40 7 35 2 c19 1 30 5 24 9 -16 10 -13 111 4 105 11
-5 16 -17 13 -35 0 -5 11 -8 27 -7 24 0 25 1 7 9 -17 7 -17 9 -2 9 9 1 16 4
16 9 -1 4 -1 15 0 25 1 16 2 16 19 0 12 -12 14 -21 8 -25 -7 -5 -4 -8 5 -8 16
0 34 26 31 43 -1 4 12 7 29 7 17 0 28 4 24 10 -3 6 2 11 12 11 10 1 0 5 -22 9
-29 5 -16 7 50 7 50 0 70 -2 45 -5z m97 2 c-3 -3 -12 -4 -19 -1 -8 3 -5 6 6 6
11 1 17 -2 13 -5z m1347 -72 c-7 -69 -24 -110 -24 -56 0 58 13 133 22 128 4
-3 6 -35 2 -72z m-1330 50 c-7 -4 -14 -18 -17 -32 -4 -21 -4 -20 -6 8 -1 24 3
32 17 32 11 0 13 -3 6 -8z m43 2 c-3 -3 -12 -4 -19 -1 -8 3 -5 6 6 6 11 1 17
-2 13 -5z m30 -41 c-3 -10 -5 -2 -5 17 0 19 2 27 5 18 2 -10 2 -26 0 -35z
m1284 -73 c-8 -22 -10 -18 -10 25 -1 28 3 61 7 75 6 20 8 15 10 -25 2 -28 -2
-62 -7 -75z m-1631 90 c0 -5 -4 -10 -10 -10 -5 0 -10 5 -10 10 0 6 5 10 10 10
6 0 10 -4 10 -10z m210 6 c0 -3 -4 -8 -10 -11 -5 -3 -10 -1 -10 4 0 6 5 11 10
11 6 0 10 -2 10 -4z m90 -6 c0 -5 -4 -10 -10 -10 -5 0 -10 5 -10 10 0 6 5 10
10 10 6 0 10 -4 10 -10z m1702 -13 c4 -10 12 -15 18 -12 5 3 10 1 10 -5 0 -6
11 -21 23 -33 13 -12 22 -27 20 -34 -3 -7 14 -5 49 7 139 49 442 70 660 46
237 -27 336 -58 443 -139 127 -96 195 -230 224 -437 7 -47 19 -108 28 -137 10
-29 15 -54 12 -57 -2 -2 -31 2 -64 10 -33 7 -75 14 -92 14 -34 0 -41 8 -22 27
7 7 -2 12 -31 17 -29 5 -44 13 -51 30 -9 20 -21 24 -77 30 -37 3 -83 6 -103 6
-20 0 -42 6 -48 14 -7 8 -14 49 -17 90 -3 61 -11 90 -36 139 -17 34 -32 67
-33 72 -2 27 -18 55 -34 60 -20 6 -91 91 -91 108 0 15 -41 57 -55 57 -7 0 -25
6 -41 14 -38 19 -157 36 -272 39 l-93 2 -29 -35 c-35 -42 -37 -54 -8 -45 18 6
20 5 12 -11 -4 -11 -8 -38 -9 -61 0 -25 -8 -50 -19 -61 -16 -18 -16 -29 -7
-123 6 -57 18 -140 26 -184 21 -113 23 -372 2 -388 -9 -7 -17 -25 -19 -40 l-3
-29 -37 30 c-42 33 -63 42 -165 73 -40 11 -73 25 -73 30 0 15 22 11 111 -20
114 -38 148 -44 145 -25 -1 8 -13 21 -27 28 -13 7 -33 17 -44 23 -11 6 -51 19
-90 29 l-70 19 -3 44 -3 44 50 -5 c28 -3 57 -11 66 -18 8 -7 32 -14 52 -16 35
-3 36 -3 15 12 -12 8 -27 34 -34 57 l-13 42 -3 -37 c-2 -21 -6 -38 -9 -38 -16
0 -120 34 -131 43 -9 7 -12 23 -9 43 3 17 0 37 -6 43 -23 23 6 23 94 2 50 -12
92 -21 94 -19 7 6 -34 113 -44 116 -10 3 -4 -27 14 -70 5 -13 2 -18 -8 -18
-40 0 -43 7 -40 118 l2 107 -10 -90 c-19 -191 -25 -108 -8 108 11 135 8 167
-12 137 -8 -12 -9 -11 -5 5 2 11 6 43 9 70 2 28 2 41 0 30 -10 -45 -23 -37
-24 16 -1 29 -3 46 -6 36 -7 -25 -23 -11 -24 21 0 24 -1 25 -8 7 -7 -17 -9
-16 -15 13 -4 18 -11 30 -16 27 -9 -5 -20 18 -20 41 0 19 23 13 32 -9z m-2152
-38 c0 -5 0 -12 -1 -15 0 -4 5 -11 13 -16 10 -8 10 -11 0 -15 -6 -2 -10 -9 -6
-14 3 -5 -5 -9 -17 -9 -18 0 -19 2 -9 15 10 12 10 18 0 30 -10 12 -10 15 1 16
10 0 11 2 2 6 -7 2 -13 9 -13 14 0 4 7 6 15 3 8 -4 15 -10 15 -15z m1820 -19
c0 -22 -3 -40 -8 -40 -4 0 -6 18 -4 40 2 22 6 40 8 40 2 0 4 -18 4 -40z m66
-147 c-2 -10 -8 -62 -12 -116 -3 -53 -11 -100 -16 -103 -7 -4 -8 26 -4 87 9
115 15 149 27 149 6 0 8 -8 5 -17z m-47 -124 c-11 -123 -14 -137 -25 -127 -6
7 13 235 22 249 13 21 13 0 3 -122z m368 109 c-3 -8 -6 -5 -6 6 -1 11 2 17 5
13 3 -3 4 -12 1 -19z m-292 -60 c-11 -108 -27 -131 -21 -30 3 46 8 87 11 93
14 22 17 5 10 -63z m-111 -35 c-4 -49 -10 -95 -15 -103 -8 -14 -2 150 7 178
10 34 13 3 8 -75z m176 -49 c-13 -102 -20 -118 -20 -48 0 81 12 156 23 145 6
-6 5 -41 -3 -97z m-38 -39 c-6 -84 -21 -122 -22 -54 0 25 3 75 7 110 9 87 22
40 15 -56z m69 72 c-8 -8 -11 -7 -11 4 0 20 13 34 18 19 3 -7 -1 -17 -7 -23z
m210 -104 c-8 -14 -10 -8 -11 27 0 25 4 56 8 70 5 20 8 14 10 -27 2 -29 -2
-61 -7 -70z m-24 70 c-3 -10 -5 -4 -5 12 0 17 2 24 5 18 2 -7 2 -21 0 -30z
m1830 -15 c58 -34 100 -67 117 -94 28 -41 1 -27 -83 46 -45 39 -79 70 -77 70
3 0 22 -10 43 -22z m-2270 -20 c-3 -8 -6 -5 -6 6 -1 11 2 17 5 13 3 -3 4 -12
1 -19z m-77 -88 c0 -5 -5 -10 -11 -10 -5 0 -7 5 -4 10 3 6 8 10 11 10 2 0 4
-4 4 -10z m-120 -40 c0 -13 -70 -13 -90 0 -11 7 0 10 38 10 28 0 52 -4 52 -10z
m370 -10 c0 -5 -5 -10 -11 -10 -5 0 -7 5 -4 10 3 6 8 10 11 10 2 0 4 -4 4 -10z
m35 0 c3 -5 1 -10 -4 -10 -6 0 -11 5 -11 10 0 6 2 10 4 10 3 0 8 -4 11 -10z
m-1807 -17 c-10 -2 -28 -2 -40 0 -13 2 -5 4 17 4 22 1 32 -1 23 -4z m2019 -35
c-3 -7 -5 -2 -5 12 0 14 2 19 5 13 2 -7 2 -19 0 -25z m34 -9 c-9 -23 -10 -22
-10 11 -1 23 2 31 9 24 7 -7 7 -19 1 -35z m-371 23 c0 -5 -13 -7 -30 -4 -16 2
-30 6 -30 8 0 2 14 4 30 4 17 0 30 -4 30 -8z m43 -9 c-7 -2 -19 -2 -25 0 -7 3
-2 5 12 5 14 0 19 -2 13 -5z m50 -10 c-7 -2 -19 -2 -25 0 -7 3 -2 5 12 5 14 0
19 -2 13 -5z m-2 -26 c0 -4 -2 -21 -6 -37 -9 -40 -41 -42 -39 -2 1 17 7 26 15
24 9 -1 8 3 -3 11 -10 8 -18 17 -18 20 0 8 49 -7 51 -16z m-403 -54 c-10 -2
-26 -2 -35 0 -10 3 -2 5 17 5 19 0 27 -2 18 -5z m-2498 -13 c0 -5 -7 -10 -15
-10 -8 0 -15 5 -15 10 0 6 7 10 15 10 8 0 15 -4 15 -10z m2757 4 c-3 -3 -12
-4 -19 -1 -8 3 -5 6 6 6 11 1 17 -2 13 -5z m13 -84 l0 -40 -52 0 c-41 1 -49 3
-35 11 10 6 17 22 17 39 0 28 3 30 35 30 34 0 35 -1 35 -40z m160 30 c23 -7
22 -8 -11 -9 -34 -1 -35 -3 -31 -31 3 -25 1 -29 -12 -24 -9 3 -16 14 -16 24 0
10 -3 25 -6 34 -5 12 0 16 22 15 16 -1 40 -5 54 -9z m-432 -57 c-10 -2 -26 -2
-35 0 -10 3 -2 5 17 5 19 0 27 -2 18 -5z m1682 -3 c210 1 260 -3 370 -26 l25
-6 -22 -17 c-14 -12 -23 -32 -25 -57 l-4 -39 -20 42 c-15 33 -26 43 -52 48
-38 7 -52 1 -52 -25 0 -31 38 -122 64 -155 20 -25 26 -27 39 -17 9 8 19 27 22
44 4 16 10 26 15 21 4 -4 20 -59 35 -121 l27 -114 -22 -23 c-22 -23 -22 -27
-11 -119 6 -52 11 -117 11 -144 0 -33 6 -57 19 -73 39 -50 64 -115 69 -177 4
-47 9 -65 21 -69 44 -14 47 -16 29 -20 -10 -3 -18 -6 -18 -8 0 -2 21 -39 47
-82 40 -67 47 -86 47 -133 1 -119 -110 -274 -225 -318 -80 -30 -202 -45 -267
-32 -64 12 -162 62 -162 83 0 4 28 4 63 0 76 -7 111 8 159 68 28 35 34 38 44
25 6 -9 20 -16 32 -16 11 0 22 -5 24 -12 2 -6 29 -15 59 -18 30 -4 62 -10 72
-15 26 -11 97 65 97 104 0 36 -36 90 -75 112 -27 16 -35 16 -84 4 -29 -8 -59
-22 -66 -31 -20 -28 -28 2 -15 58 10 40 10 52 0 58 -10 6 -11 20 -3 59 l10 51
-34 17 c-35 16 -37 16 -103 -17 -8 -4 -19 -28 -24 -54 -5 -28 -13 -46 -22 -46
-17 0 -30 -25 -39 -73 -5 -26 -15 -41 -33 -49 -15 -8 -29 -26 -33 -42 -5 -16
-23 -44 -40 -63 -31 -31 -32 -34 -15 -46 17 -12 14 -15 -27 -28 -36 -11 -52
-24 -79 -64 -75 -113 -213 -125 -391 -33 -34 18 -65 33 -69 33 -4 0 -25 -36
-46 -80 -42 -87 -138 -247 -172 -286 -11 -13 15 35 59 107 85 140 135 234 129
240 -3 2 -24 -31 -47 -74 -58 -104 -211 -332 -223 -332 -14 0 1 39 32 85 52
78 53 87 1 21 -39 -49 -41 -29 -3 27 32 47 112 178 149 245 26 47 123 262 123
272 -1 3 -11 -15 -24 -39 -34 -65 -39 -28 -6 44 35 77 49 125 22 77 -10 -18
-21 -30 -25 -26 -3 4 -2 15 4 26 17 31 41 104 30 93 -5 -6 -21 -34 -36 -63
-15 -29 -29 -51 -31 -49 -4 3 28 74 64 147 5 8 5 28 2 45 l-5 30 -23 -35 -22
-35 6 32 c5 25 2 33 -15 42 -19 10 -30 38 -46 116 l-7 30 31 -35 31 -35 -25
55 c-14 30 -25 64 -25 75 0 16 -2 17 -10 5 -10 -16 -11 -15 -28 23 -15 34 -16
71 -2 62 14 -9 13 3 -16 133 -15 64 -27 128 -28 142 -1 14 -5 24 -11 22 -17
-6 -24 32 -19 108 3 41 7 81 10 88 7 22 61 -14 73 -49 6 -18 43 -63 82 -100
40 -38 68 -69 63 -69 -5 0 -41 26 -78 57 l-69 57 7 -85 c11 -136 36 -274 36
-198 0 25 48 110 69 123 17 11 13 -2 -14 -42 -14 -20 -25 -46 -25 -57 0 -11
-7 -30 -15 -41 -12 -19 -12 -30 5 -100 10 -43 31 -113 46 -154 42 -118 65
-227 67 -327 2 -90 10 -120 26 -94 6 9 27 12 72 9 l63 -3 8 35 c5 27 3 41 -12
62 -11 15 -20 32 -20 38 0 14 52 13 87 -2 15 -6 52 -13 82 -14 69 -4 99 -9
135 -23 32 -13 79 -7 113 15 12 8 40 45 62 83 45 77 86 117 148 145 24 10 45
27 48 36 3 10 -2 51 -11 91 -26 113 -28 154 -11 189 15 29 15 33 -9 67 -19 28
-22 38 -12 45 24 15 48 9 48 -13 0 -14 5 -19 18 -17 11 3 16 12 14 28 -4 40
-22 53 -68 47 l-41 -4 -7 101 c-4 55 -11 126 -17 156 -6 30 -13 65 -15 77 -5
28 -30 36 -74 23 -48 -14 -55 -1 -34 58 10 28 15 54 11 59 -4 4 -21 2 -37 -4
-17 -6 -32 -7 -35 -2 -3 5 -113 6 -250 2 -168 -4 -245 -3 -245 4 0 13 34 23
82 23 20 0 45 3 55 7 16 6 15 8 -7 15 -14 4 22 5 80 2 58 -3 211 -5 340 -4z
m-3047 -7 c-7 -2 -21 -2 -30 0 -10 3 -4 5 12 5 17 0 24 -2 18 -5z m2484 -29
c-3 -3 -12 -4 -19 -1 -8 3 -5 6 6 6 11 1 17 -2 13 -5z m-2500 -10 c-3 -3 -12
-4 -19 -1 -8 3 -5 6 6 6 11 1 17 -2 13 -5z m1343 -53 c0 -6 -5 -13 -10 -16
-12 -7 -49 -86 -53 -112 -4 -27 -16 -43 -32 -43 -16 0 -17 -4 25 100 15 36 19
55 11 58 -24 8 -9 22 24 22 19 0 35 -4 35 -9z m-2115 -61 c3 -5 -3 -10 -15
-10 -12 0 -18 5 -15 10 3 6 10 10 15 10 5 0 12 -4 15 -10z m120 0 c4 -6 -5
-10 -19 -10 -14 0 -26 5 -26 10 0 6 9 10 19 10 11 0 23 -4 26 -10z m-272 -7
c-7 -2 -21 -2 -30 0 -10 3 -4 5 12 5 17 0 24 -2 18 -5z m2961 -9 c26 -10 13
-149 -19 -211 l-15 -28 0 45 c0 51 -15 157 -25 183 -6 13 -2 17 18 17 14 0 32
-3 41 -6z m-2049 -14 c-3 -5 -1 -10 5 -10 6 0 8 -4 5 -10 -3 -5 -2 -10 4 -10
5 0 9 -9 8 -20 -2 -23 -17 -27 -17 -5 0 9 -7 27 -16 40 -15 23 -15 25 0 25 10
0 14 -4 11 -10z m2171 -37 c-10 -10 -19 5 -10 18 6 11 8 11 12 0 2 -7 1 -15
-2 -18z m-2681 -23 c4 -6 -5 -10 -19 -10 -14 0 -26 5 -26 10 0 6 9 10 19 10
11 0 23 -4 26 -10z m539 -55 c-4 -8 -8 -15 -10 -15 -2 0 -4 7 -4 15 0 8 4 15
10 15 5 0 7 -7 4 -15z m2886 -10 c-31 -38 -199 -116 -315 -146 -82 -22 -85
-22 -85 -9 0 6 8 10 19 10 21 0 138 46 286 114 116 52 111 50 95 31z m-5170
-50 c10 -12 8 -52 -10 -208 -23 -188 -36 -237 -65 -237 -8 0 -19 -8 -24 -17
-21 -36 -12 43 18 158 33 126 56 271 48 293 -11 27 13 35 33 11z m1807 -1 c-3
-3 -12 -4 -19 -1 -8 3 -5 6 6 6 11 1 17 -2 13 -5z m-457 -24 c0 -5 -4 -10 -9
-10 -6 0 -13 5 -16 10 -3 6 1 10 9 10 9 0 16 -4 16 -10z m5050 -10 c-8 -5 -19
-10 -25 -10 -5 0 -3 5 5 10 8 5 20 10 25 10 6 0 3 -5 -5 -10z m-110 -40 c-8
-5 -19 -10 -25 -10 -5 0 -3 5 5 10 8 5 20 10 25 10 6 0 3 -5 -5 -10z m-6145
-147 c-15 -60 -32 -112 -37 -118 -11 -12 -6 13 30 148 15 54 28 93 30 88 2 -6
-9 -59 -23 -118z m1265 93 c0 -2 -7 -6 -15 -10 -8 -3 -15 -1 -15 4 0 6 7 10
15 10 8 0 15 -2 15 -4z m2884 -97 c-30 -31 -34 -34 -34 -20 0 16 42 61 52 55
5 -4 -2 -19 -18 -35z m-3984 -13 c0 -3 -4 -8 -10 -11 -5 -3 -10 -1 -10 4 0 6
5 11 10 11 6 0 10 -2 10 -4z m2023 -13 c-7 -2 -19 -2 -25 0 -7 3 -2 5 12 5 14
0 19 -2 13 -5z m3087 -9 c0 -8 -4 -12 -10 -9 -5 3 -10 10 -10 16 0 5 5 9 10 9
6 0 10 -7 10 -16z m-960 -67 c0 -10 -57 23 -73 42 -7 8 7 3 30 -10 24 -13 43
-28 43 -32z m-2110 33 c0 -5 -2 -10 -4 -10 -3 0 -8 5 -11 10 -3 6 -1 10 4 10
6 0 11 -4 11 -10z m2560 -30 c0 -5 -2 -10 -4 -10 -3 0 -8 5 -11 10 -3 6 -1 10
4 10 6 0 11 -4 11 -10z m-4635 -18 c-3 -3 -11 0 -18 7 -9 10 -8 11 6 5 10 -3
15 -9 12 -12z m25 -17 c0 -20 -28 -57 -47 -61 -22 -6 -33 -24 -13 -24 5 0 6
-8 3 -17 -5 -12 -2 -15 10 -10 9 3 17 2 17 -3 0 -6 4 -10 10 -10 5 0 13 18 16
40 4 22 11 37 16 34 5 -3 15 2 22 11 11 16 13 14 11 -16 0 -19 -7 -44 -13 -56
-8 -15 -9 -23 -2 -23 15 0 12 -27 -6 -66 -17 -35 -34 -45 -34 -19 0 8 -5 15
-11 15 -17 0 -69 60 -69 81 0 10 -8 23 -17 28 -10 6 -13 11 -8 11 6 0 3 5 -5
10 -12 8 -9 10 13 10 16 0 27 5 27 14 0 16 48 55 68 56 6 0 12 -2 12 -5z m967
-35 c1 -11 -4 -20 -10 -20 -7 0 -13 9 -13 20 0 11 5 20 11 20 6 0 11 -9 12
-20z m-1117 -31 c0 -6 -4 -7 -10 -4 -5 3 -10 11 -10 16 0 6 5 7 10 4 6 -3 10
-11 10 -16z m1210 -49 c0 -5 -4 -10 -10 -10 -5 0 -10 5 -10 10 0 6 5 10 10 10
6 0 10 -4 10 -10z m-1175 -50 l30 -35 -32 29 c-18 17 -33 34 -33 40 0 5 1 7 3
5 1 -2 16 -20 32 -39z m935 31 c0 -14 -21 -74 -37 -106 -16 -32 -63 -73 -63
-55 0 6 7 13 15 16 8 4 15 14 15 24 0 32 42 130 56 130 8 0 14 -4 14 -9z
m1225 -21 c4 -6 -6 -10 -22 -9 -25 0 -26 1 -8 9 11 5 21 9 22 9 1 1 5 -3 8 -9z
m2215 -15 c0 -9 -34 -45 -42 -45 -5 0 -1 11 8 25 14 22 34 34 34 20z m-460
-50 c17 5 17 3 3 -37 -16 -47 -14 -68 18 -174 l22 -71 27 31 c35 41 70 100 70
118 0 8 -11 36 -25 62 -32 60 -33 80 -2 72 12 -3 27 -6 33 -6 6 0 19 -17 28
-39 20 -44 21 -41 -49 -150 -23 -36 -57 -93 -75 -126 -81 -148 -83 -150 -92
-124 -18 48 -51 52 -65 7 -9 -31 -10 -32 -20 -12 -13 22 1 165 33 336 13 73
22 96 43 116 22 20 27 21 29 8 2 -11 10 -15 22 -11z m-1972 -57 c-3 -7 -13
-13 -23 -13 -10 0 -20 6 -22 13 -3 7 5 12 22 12 17 0 25 -5 23 -12z m2 -38 c0
-5 -7 -10 -16 -10 -8 0 -12 5 -9 10 3 6 10 10 16 10 5 0 9 -4 9 -10z m1857
-32 c-3 -7 -5 -2 -5 12 0 14 2 19 5 13 2 -7 2 -19 0 -25z m-2012 -18 c0 -28
-14 -44 -16 -17 0 6 -2 20 -4 30 -2 9 2 17 8 17 7 0 12 -13 12 -30z m4655 12
c0 -5 -7 -17 -15 -28 -14 -18 -14 -17 -4 9 12 27 19 34 19 19z m-4478 -33
c-21 -8 -56 1 -45 11 14 13 48 16 55 5 4 -5 0 -13 -10 -16z m1355 -46 c-2 -16
-4 -5 -4 22 0 28 2 40 4 28 2 -13 2 -35 0 -50z m470 30 c-3 -10 -5 -4 -5 12 0
17 2 24 5 18 2 -7 2 -21 0 -30z m2462 -2 c11 -7 11 -10 -1 -17 -8 -5 -20 -18
-26 -29 -10 -18 -11 -17 -12 11 0 42 11 53 39 35z m-1787 -58 c-5 -26 -15 -23
-17 6 -1 10 4 18 10 18 7 0 10 -10 7 -24z m1543 7 c3 -5 1 -10 -4 -10 -6 0
-11 5 -11 10 0 6 2 10 4 10 3 0 8 -4 11 -10z m-1843 -27 c4 -51 -4 -98 -17
-106 -9 -4 -13 -12 -10 -17 6 -10 -3 -48 -27 -110 -17 -43 -90 -160 -101 -160
-8 0 -117 60 -117 65 0 2 30 47 68 100 37 53 73 108 80 121 7 13 17 24 21 24
4 0 22 23 40 50 33 51 60 65 63 33z m-1755 -35 c-3 -8 -6 -5 -6 6 -1 11 2 17
5 13 3 -3 4 -12 1 -19z m3843 -28 c0 -5 -4 -10 -10 -10 -5 0 -10 5 -10 10 0 6
5 10 10 10 6 0 10 -4 10 -10z m-1890 -55 c-29 -47 -37 -39 -9 9 12 20 24 35
26 32 3 -3 -5 -21 -17 -41z m107 23 c-3 -8 -6 -5 -6 6 -1 11 2 17 5 13 3 -3 4
-12 1 -19z m-2504 5 c-7 -2 -21 -2 -30 0 -10 3 -4 5 12 5 17 0 24 -2 18 -5z
m2497 -27 c0 -3 -4 -8 -10 -11 -5 -3 -10 -1 -10 4 0 6 5 11 10 11 6 0 10 -2
10 -4z m-100 -76 c-17 -34 -34 -59 -37 -56 -6 6 30 86 50 114 23 30 16 -1 -13
-58z m2166 49 c9 -15 -23 -10 -35 5 -10 12 -8 13 9 9 11 -3 23 -9 26 -14z
m-961 -9 c4 -6 -6 -10 -22 -10 -22 0 -25 2 -13 10 19 12 27 12 35 0z m700 0
c16 14 18 10 9 -14 -4 -9 -15 -21 -26 -27 -15 -8 -19 -8 -14 0 4 6 1 21 -5 33
-11 21 -11 22 4 9 14 -11 20 -11 32 -1z m-1873 -33 c-6 -7 -31 -54 -57 -105
-26 -51 -49 -91 -52 -89 -2 3 5 24 17 47 12 23 19 44 16 47 -2 3 -14 -15 -26
-39 -41 -80 -170 -267 -190 -273 -11 -3 -29 -18 -40 -32 -44 -56 -17 -6 33 61
62 82 177 263 177 278 0 6 7 8 15 4 8 -3 19 2 24 12 8 14 11 14 11 2 1 -8 17
17 37 55 20 39 38 64 40 57 3 -7 0 -18 -5 -25z m-72 2 c-7 -11 -14 -18 -17
-15 -3 3 0 12 7 21 18 21 23 19 10 -6z m830 -3 c0 -15 -18 -31 -26 -23 -7 7 7
37 17 37 5 0 9 -6 9 -14z m420 4 c0 -5 -7 -10 -16 -10 -8 0 -13 -4 -9 -9 7
-13 -10 -22 -28 -15 -12 4 -15 18 -8 42 3 7 61 0 61 -8z m-5473 -6 c-3 -3 -12
-4 -19 -1 -8 3 -5 6 6 6 11 1 17 -2 13 -5z m4349 -52 c-16 -31 -50 -54 -39
-27 3 8 9 12 14 9 5 -3 9 4 9 15 0 31 11 54 22 43 6 -6 4 -21 -6 -40z m-44 16
c-7 -7 -12 -8 -12 -2 0 14 12 26 19 19 2 -3 -1 -11 -7 -17z m-108 0 c-35 -59
-139 -225 -146 -233 -14 -15 11 45 34 85 31 52 108 160 114 160 3 0 2 -6 -2
-12z m906 -23 c0 -16 -6 -25 -15 -25 -16 0 -19 9 -9 34 9 25 24 19 24 -9z
m-3979 -36 c-12 -10 -29 -15 -37 -12 -9 3 -12 9 -7 12 5 3 12 14 16 24 6 15
10 16 29 6 l22 -12 -23 -18z m3166 34 c-2 -5 -25 -52 -52 -105 -27 -54 -50
-96 -52 -94 -5 5 95 206 103 206 3 0 3 -3 1 -7z m-3322 -13 c4 -6 -6 -10 -22
-9 -25 0 -26 1 -8 9 11 5 21 9 22 9 1 1 5 -3 8 -9z m4157 -12 c-7 -7 -12 -8
-12 -2 0 14 12 26 19 19 2 -3 -1 -11 -7 -17z m48 2 c-6 -11 -18 -20 -27 -20
-14 0 -14 2 2 20 10 11 22 20 27 20 5 0 4 -9 -2 -20z m-4050 -40 c0 -5 -4 -10
-10 -10 -5 0 -10 5 -10 10 0 6 5 10 10 10 6 0 10 -4 10 -10z m3167 -22 c-7
-18 -16 -36 -22 -40 -5 -4 -6 -10 -3 -14 8 -7 -35 -91 -59 -114 -13 -13 -14
-13 -9 5 7 24 96 195 101 195 2 0 -2 -15 -8 -32z m2153 -103 c0 -8 -4 -15 -9
-15 -13 0 -22 16 -14 24 11 11 23 6 23 -9z m-5419 -14 c-12 -8 -51 -4 -51 5 0
2 15 4 33 4 22 0 28 -3 18 -9z m3059 -100 c0 -14 -47 -67 -54 -61 -5 5 41 70
50 70 2 0 4 -4 4 -9z m-3630 -75 c0 -2 -9 -2 -20 1 -11 3 -20 9 -20 15 0 5 9
4 20 -2 11 -6 20 -12 20 -14z m940 -26 c-20 -13 -90 -13 -90 0 0 6 24 10 53
10 37 0 48 -3 37 -10z m853 -47 c-7 -2 -21 -2 -30 0 -10 3 -4 5 12 5 17 0 24
-2 18 -5z m-2265 -80 c2 -8 -5 -13 -17 -13 -28 0 -27 -20 2 -21 l22 -2 -23 -4
c-12 -3 -29 3 -39 13 -16 15 -16 17 2 31 22 16 46 14 53 -4z m2249 11 c-3 -3
-12 -4 -19 -1 -8 3 -5 6 6 6 11 1 17 -2 13 -5z m-404 -41 c-7 -2 -21 -2 -30 0
-10 3 -4 5 12 5 17 0 24 -2 18 -5z m-718 -133 c-3 -5 -11 -10 -16 -10 -6 0 -7
5 -4 10 3 6 11 10 16 10 6 0 7 -4 4 -10z m-130 -16 c-9 -9 -19 -13 -23 -10 -3
4 0 11 8 16 24 15 33 11 15 -6z m4985 -69 c0 -8 -4 -15 -9 -15 -13 0 -22 16
-14 24 11 11 23 6 23 -9z m-796 -279 c-12 -8 -31 -12 -42 -9 -33 8 -16 23 26
23 35 0 35 -1 16 -14z"/>
<path d="M2478 3313 c7 -3 16 -2 19 1 4 3 -2 6 -13 5 -11 0 -14 -3 -6 -6z"/>
<path d="M2433 3273 c-16 -6 -17 -33 -2 -33 5 0 8 4 5 9 -4 5 0 11 6 14 7 2
11 7 8 9 -3 3 -11 3 -17 1z"/>
<path d="M2360 3190 c0 -11 7 -23 15 -27 19 -7 20 -5 29 25 6 19 4 22 -18 22
-19 0 -26 -5 -26 -20z"/>
<path d="M2028 2453 c7 -3 16 -2 19 1 4 3 -2 6 -13 5 -11 0 -14 -3 -6 -6z"/>
<path d="M1653 1933 c15 -2 39 -2 55 0 15 2 2 4 -28 4 -30 0 -43 -2 -27 -4z"/>
<path d="M1876 1535 c4 -8 18 -15 33 -15 l26 1 -25 14 c-32 18 -41 18 -34 0z"/>
<path d="M1473 1253 c9 -2 25 -2 35 0 9 3 1 5 -18 5 -19 0 -27 -2 -17 -5z"/>
<path d="M2198 573 c6 -2 18 -2 25 0 6 3 1 5 -13 5 -14 0 -19 -2 -12 -5z"/>
<path d="M2420 545 c0 -8 7 -15 15 -15 8 0 15 -6 15 -12 0 -10 3 -9 9 1 7 11
13 11 32 -3 31 -22 48 -20 46 4 -1 11 -7 20 -14 20 -7 0 -13 5 -13 10 0 7 -8
7 -22 -1 -16 -9 -23 -9 -26 0 -6 17 -42 13 -42 -4z"/>
<path d="M4620 2865 c0 -8 4 -15 10 -15 5 0 7 7 4 15 -4 8 -8 15 -10 15 -2 0
-4 -7 -4 -15z"/>
<path d="M4650 2530 c0 -5 5 -10 10 -10 6 0 10 5 10 10 0 6 -4 10 -10 10 -5 0
-10 -4 -10 -10z"/>
<path d="M4790 1790 c0 -8 5 -22 10 -30 9 -13 10 -13 10 0 0 8 -5 22 -10 30
-9 13 -10 13 -10 0z"/>
<path d="M5240 1301 c-90 -25 -93 -218 -4 -251 40 -16 120 -12 134 5 7 9 10
18 7 21 -3 3 3 21 14 40 10 19 19 38 19 42 0 4 -16 25 -35 47 -36 41 -42 55
-25 55 21 0 8 19 -24 34 -36 17 -47 18 -86 7z m80 -161 c13 -8 13 -11 -2 -26
-23 -24 -53 -11 -38 16 12 22 18 24 40 10z"/>
<path d="M4780 890 c-6 -11 -8 -20 -6 -20 3 0 10 9 16 20 6 11 8 20 6 20 -3 0
-10 -9 -16 -20z"/>
<path d="M4251 1505 c-6 -22 -13 -58 -16 -80 -3 -27 2 -17 15 30 11 39 18 75
16 80 -2 6 -8 -8 -15 -30z"/>
<path d="M4218 1355 c-3 -14 -1 -28 3 -31 5 -3 9 9 9 25 0 38 -6 40 -12 6z"/>
<path d="M216 2515 c-4 -11 2 -15 21 -15 21 0 24 2 13 15 -7 8 -16 15 -20 15
-4 0 -10 -7 -14 -15z"/>
<path d="M6860 2429 c-16 -60 -17 -121 -3 -126 18 -6 30 32 34 101 5 72 -14
88 -31 25z"/>
<path d="M6851 2164 c0 -11 3 -14 6 -6 3 7 2 16 -1 19 -3 4 -6 -2 -5 -13z"/>
<path d="M5385 10 c-19 -8 -19 -9 2 -9 12 -1 25 4 28 9 7 12 -2 12 -30 0z"/>
</g>
</svg>
